<?xml version="1.0" encoding="UTF-8"?>
<svg width="75px" height="74px" viewBox="0 0 75 74" version="1.1" xmlns="http://www.w3.org/2000/svg" xmlns:xlink="http://www.w3.org/1999/xlink">
    <title>编组 120备份 12</title>
    <g id="页面-1" stroke="none" stroke-width="1" fill="none" fill-rule="evenodd">
        <g id="编组-118" transform="translate(0.000000, 0.000000)">
            <g id="编组-123">
                <rect id="矩形备份-2" fill="#FFFFFF" x="0" y="0" width="74.4186047" height="74" rx="14.8837209"></rect>
                <path d="M55.1876776,38.7808468 L60.9582815,44.3934625 L60.9582815,44.3934625 L60.9749147,44.4099528 C61.45039,44.8904488 61.4463199,45.6654168 60.9658238,46.1408921 L60.9658238,46.1408921 L53.7351223,53.2960391 C53.5059629,53.522804 53.1965897,53.6499998 52.8741981,53.6499998 L52.8741981,53.6499998 L39.9016776,53.6498468 L48.5366526,45.2515928 L55.1876776,38.7808468 Z" id="形状结合" fill="#0081F6"></path>
                <path d="M54.7175349,22.656 L61.0652708,29.7114534 C61.5049947,30.2002303 61.480024,30.9490858 61.0087164,31.4074842 L38.1398151,53.65 L38.1395349,38.274 L54.7175349,22.656 Z M53.4125349,22.2 L38.1395349,36.588 L38.1398151,22.2000004 L53.4125349,22.2 Z" id="形状结合" fill="#0081F6"></path>
                <polygon id="矩形备份-99" fill="#2CE5A9" points="26.9767442 22.2 36.744186 22.2 36.744186 53.65 26.9767442 53.65"></polygon>
                <polygon id="矩形备份-104" fill="#2CE5A9" points="15.8139535 44.4 25.1162791 44.4 25.1162791 53.65 15.8139535 53.65"></polygon>
                <polygon id="矩形备份-145" fill="#2CE5A9" points="20.4651163 22.2 35.3488372 22.2 35.3488372 31.9125 20.4651163 31.9125"></polygon>
            </g>
            <g id="编组-119" transform="translate(36.279070, 22.200000)"></g>
        </g>
    </g>
</svg>